<svg width="15" height="15" viewBox="0 0 15 15" fill="none" xmlns="http://www.w3.org/2000/svg">
<g clip-path="url(#clip0_168_967)">
<path d="M7.50122 4.13086C5.63794 4.13086 4.13501 5.63379 4.13501 7.49707C4.13501 9.36035 5.63794 10.8633 7.50122 10.8633C9.3645 10.8633 10.8674 9.36035 10.8674 7.49707C10.8674 5.63379 9.3645 4.13086 7.50122 4.13086ZM7.50122 9.68555C6.29712 9.68555 5.31274 8.7041 5.31274 7.49707C5.31274 6.29004 6.29419 5.30859 7.50122 5.30859C8.70825 5.30859 9.6897 6.29004 9.6897 7.49707C9.6897 8.7041 8.70532 9.68555 7.50122 9.68555ZM11.7903 3.99316C11.7903 4.42969 11.4387 4.77832 11.0051 4.77832C10.5686 4.77832 10.22 4.42676 10.22 3.99316C10.22 3.55957 10.5715 3.20801 11.0051 3.20801C11.4387 3.20801 11.7903 3.55957 11.7903 3.99316ZM14.0198 4.79004C13.97 3.73828 13.7297 2.80664 12.9592 2.03906C12.1917 1.27148 11.26 1.03125 10.2083 0.978516C9.12427 0.916992 5.87524 0.916992 4.79126 0.978516C3.74243 1.02832 2.81079 1.26855 2.04028 2.03613C1.26978 2.80371 1.03247 3.73535 0.979736 4.78711C0.918213 5.87109 0.918213 9.12012 0.979736 10.2041C1.02954 11.2559 1.26978 12.1875 2.04028 12.9551C2.81079 13.7227 3.7395 13.9629 4.79126 14.0156C5.87524 14.0771 9.12427 14.0771 10.2083 14.0156C11.26 13.9658 12.1917 13.7256 12.9592 12.9551C13.7268 12.1875 13.967 11.2559 14.0198 10.2041C14.0813 9.12012 14.0813 5.87402 14.0198 4.79004ZM12.6194 11.3672C12.3909 11.9414 11.9485 12.3838 11.3713 12.6152C10.5071 12.958 8.4563 12.8789 7.50122 12.8789C6.54614 12.8789 4.49243 12.9551 3.6311 12.6152C3.05688 12.3867 2.6145 11.9443 2.38306 11.3672C2.04028 10.5029 2.11938 8.45215 2.11938 7.49707C2.11938 6.54199 2.04321 4.48828 2.38306 3.62695C2.61157 3.05273 3.05396 2.61035 3.6311 2.37891C4.49536 2.03613 6.54614 2.11523 7.50122 2.11523C8.4563 2.11523 10.51 2.03906 11.3713 2.37891C11.9456 2.60742 12.3879 3.0498 12.6194 3.62695C12.9622 4.49121 12.8831 6.54199 12.8831 7.49707C12.8831 8.45215 12.9622 10.5059 12.6194 11.3672Z" fill="#F8F3F2"/>
</g>
<defs>
<clipPath id="clip0_168_967">
<rect width="15" height="15" fill="white"/>
</clipPath>
</defs>
</svg>
