<svg width="50" height="50" viewBox="0 0 50 50" fill="none" xmlns="http://www.w3.org/2000/svg">
<path d="M36.8533 10.896C36.4022 10.8898 35.9594 11.0176 35.5808 11.2631C35.2023 11.5086 34.9051 11.8609 34.7268 12.2753C34.5484 12.6897 34.497 13.1478 34.579 13.5914C34.6609 14.0351 34.8726 14.4445 35.1872 14.7678C35.5019 15.0912 35.9053 15.314 36.3466 15.4081C36.7878 15.5022 37.2471 15.4633 37.6662 15.2964C38.0854 15.1295 38.4456 14.842 38.7014 14.4704C38.9572 14.0987 39.0971 13.6596 39.1033 13.2085V13.146C39.0979 12.5509 38.8591 11.9818 38.4383 11.561C38.0175 11.1402 37.4484 10.9014 36.8533 10.896Z" stroke="#FA991C" stroke-linecap="round" stroke-linejoin="round"/>
<path d="M42.2389 5.72918H7.75977C7.21631 5.74277 6.69969 5.96825 6.32018 6.35749C5.94068 6.74673 5.72835 7.26889 5.72852 7.81252V42.2917C5.72852 42.8442 5.94801 43.3741 6.33871 43.7648C6.72941 44.1555 7.25931 44.375 7.81185 44.375H42.291C42.8435 44.375 43.3735 44.1555 43.7642 43.7648C44.1549 43.3741 44.3743 42.8442 44.3743 42.2917V7.76043C44.3676 7.48682 44.307 7.21722 44.196 6.96703C44.085 6.71685 43.9258 6.49099 43.7275 6.30235C43.5292 6.11372 43.2957 5.96601 43.0403 5.86766C42.7848 5.76931 42.5125 5.72226 42.2389 5.72918Z" stroke="#FA991C" stroke-linecap="round" stroke-linejoin="round"/>
<path d="M25 16.375C23.2941 16.375 21.6266 16.8808 20.2082 17.8286C18.7898 18.7763 17.6843 20.1233 17.0315 21.6994C16.3787 23.2754 16.2079 25.0096 16.5407 26.6827C16.8735 28.3557 17.695 29.8926 18.9012 31.0988C20.1074 32.305 21.6443 33.1265 23.3173 33.4593C24.9904 33.7921 26.7246 33.6213 28.3006 32.9685C29.8767 32.3157 31.2237 31.2102 32.1714 29.7918C33.1192 28.3734 33.625 26.7059 33.625 25C33.625 22.7125 32.7163 20.5187 31.0988 18.9012C29.4813 17.2837 27.2875 16.375 25 16.375Z" stroke="#FA991C" stroke-linecap="round" stroke-linejoin="round"/>
</svg>
