<svg width="152" height="30" viewBox="0 0 152 30" fill="none" xmlns="http://www.w3.org/2000/svg">
<g clip-path="url(#clip0_123_58)">
<path fill-rule="evenodd" clip-rule="evenodd" d="M19.1289 20.7738C18.9909 22.689 16.8753 23.3267 16.1233 23.3267H8.13124V17.8137H15.9886C16.396 17.8137 19.1289 18.3371 19.1289 20.7738ZM28.2142 21.4125C28.2142 15.4924 22.8854 14.6229 22.8854 14.6229C22.8854 14.6229 26.7113 13.0567 26.7113 9.11085C26.7113 2.66929 20.2209 0.75502 17.625 0.75502H0V29.1877H18.8551C22.3399 29.1877 28.2142 26.1705 28.2142 21.4125ZM17.9673 9.3425C17.9673 11.1405 15.9875 12.07 15.2355 12.07H8.1301V6.67325H14.6194C15.3714 6.67325 17.9673 7.31195 17.9673 9.3425ZM53.6955 14.9709C53.6955 19.0921 50.9626 23.0951 46.3172 23.0951C41.6035 23.0951 38.8706 19.0912 38.8706 14.9709C38.8706 11.0251 41.6035 7.07935 46.3172 7.19565C50.9637 7.19565 53.6955 11.1405 53.6955 14.9709ZM61.9625 14.9709C61.9625 7.07935 55.6775 0.407052 46.3184 0.407052C36.8224 0.407052 30.4689 7.0803 30.4689 14.9709C30.6058 23.0951 36.8213 30 46.3184 30C55.6763 30 62.0972 23.0951 61.9625 14.9709ZM90.6528 20.6575C90.6528 9.1099 72.2082 13.9842 73.3014 8.5875C73.7124 6.55695 76.171 6.2662 78.2889 6.2662C81.9071 6.2662 84.4373 8.7038 84.4373 8.7038L89.4235 4.2356C85.6672 1.27649 82.9344 0 77.6739 0C70.9105 0 64.6931 3.59689 64.6931 9.4579C64.6931 17.6983 75.4192 17.6983 79.1781 18.6841C81.4315 19.2065 82.0464 19.7289 81.9084 21.0054C81.9084 22.3991 79.3136 23.7329 77.5371 23.7329C73.7124 23.9646 71.4571 22.2819 68.7939 20.0187L63.6709 24.7195C68.3158 28.549 72.4147 30 77.5384 29.8837C84.163 29.7102 90.6528 26.5175 90.6528 20.6575ZM122.01 23.2124L115.247 19.6136C115.247 19.6136 112.514 23.0951 109.371 23.0951C104.384 23.2124 101.653 18.9748 101.653 14.8555C101.653 10.7934 104.18 7.19565 108.895 7.19565C111.628 7.19565 113.54 8.58845 114.769 10.5036L121.259 6.90675C120.165 5.5149 117.638 0.52335 109.371 0.291687C100.423 0.118174 93.3172 7.1966 93.3172 14.8565C93.3172 23.0961 99.0552 29.5948 109.645 29.5948C115.042 29.7102 119.278 26.8092 122.01 23.2124ZM152 29.1877V0.75408H143.596V11.4303H133.35V0.75408H124.743V29.1868H133.145V17.8137H143.596V29.1877H152Z" fill="#D7CECD"/>
</g>
<defs>
<clipPath id="clip0_123_58">
<rect width="152" height="30" fill="white"/>
</clipPath>
</defs>
</svg>
