<svg width="99" height="30" viewBox="0 0 99 30" fill="none" xmlns="http://www.w3.org/2000/svg">
<g clip-path="url(#clip0_123_51)">
<mask id="mask0_123_51" style="mask-type:luminance" maskUnits="userSpaceOnUse" x="0" y="0" width="99" height="30">
<path d="M99 0H0V30H99V0Z" fill="white"/>
</mask>
<g mask="url(#mask0_123_51)">
<path d="M58.9516 11.7828L56.3452 20.4743L52.812 11.7828H46.6338L43.1436 23.0614L41.3771 11.6695H35.8501C35.8501 11.6695 35.0412 11.6761 34.3585 12.1095C33.9953 12.3556 33.654 12.6669 33.3423 13.0364L28.1735 19.7775C24.9762 23.5014 19.3816 25.6485 17.8179 25.7518C10.3734 26.2519 8.82098 18.7306 9.33694 15.1767C10.6663 5.9918 20.2987 3.8148 25.3548 3.8148C27.7521 3.8148 29.7192 4.51491 31.2401 5.13835L32.7024 1.28104L31.6276 0.944315C30.2938 0.697605 28.214 0.0308297 24.6653 0.0141602C10.3126 -0.0558515 2.9447 5.90515 0.700541 13.5498C-1.83203 22.1779 2.4445 29.9858 14.4697 29.9858C16.6508 29.9858 20.9656 29.7058 25.0213 27.5421H28.9351L30.9426 24.9083H37.0037L37.2583 27.7255H43.8646L43.8556 27.6588H47.3863L50.2028 18.5473L53.8957 27.6521L59.6254 27.6555L64.5396 11.7828H58.9516ZM33.2431 21.7245L36.4674 17.1837L36.7739 21.6144L33.2431 21.7245ZM75.0578 11.7828H66.0246L61.1082 27.6555H70.1436C77.3717 27.7421 80.3098 23.6281 81.2833 20.4743C82.369 16.9837 81.4362 11.7828 75.0578 11.7828ZM75.9928 19.4541C75.3009 23.4314 71.331 23.6915 69.9791 23.6915H68.377L70.7519 15.7568H72.354C73.8159 15.7535 76.5626 16.1602 75.9928 19.4541Z" fill="#D7CECD"/>
<path d="M92.7697 11.6694L88.2564 18.3138L86.7357 11.7828H81.2109L84.8184 23.8814L81.2357 29.1324H85.9695C85.9695 29.1324 86.8908 28.9656 87.2741 28.7656C87.6569 28.5622 88.2003 27.7454 88.2003 27.7454L98.9996 11.6861L92.7697 11.6694Z" fill="#D7CECD"/>
</g>
</g>
<defs>
<clipPath id="clip0_123_51">
<rect width="99" height="30" fill="white"/>
</clipPath>
</defs>
</svg>
