<svg width="93" height="30" viewBox="0 0 93 30" fill="none" xmlns="http://www.w3.org/2000/svg">
<g clip-path="url(#clip0_123_72)">
<mask id="mask0_123_72" style="mask-type:luminance" maskUnits="userSpaceOnUse" x="-2" y="0" width="95" height="30">
<path d="M92.9999 0H-1.16992V30H92.9999V0Z" fill="white"/>
</mask>
<g mask="url(#mask0_123_72)">
<path d="M92.9422 7.14207C91.6618 0.087038 69.5706 -2.11462 43.5979 2.22434C32.6904 4.0475 22.8414 6.73657 15.1716 9.76182C16.3498 9.78657 17.2235 10.0458 17.7545 10.5539C18.1695 10.9526 18.3792 11.4999 18.3792 12.1817V12.8816H15.8324V12.2636C15.8324 11.7488 15.5106 11.4297 14.9408 11.4297C14.4619 11.4297 14.1669 11.6372 14.0717 12.0458C14.0398 12.2074 14.0433 12.3735 14.082 12.5337C14.3545 13.6026 18.1362 14.2664 18.5475 16.239C18.6015 16.4928 18.6747 17.036 18.5593 17.8132C18.3234 19.4042 16.8666 20.018 15.0121 20.018C12.4236 20.018 11.372 18.8416 11.372 17.2196L11.3739 16.4523H14.1041L14.1055 17.4082C14.1055 17.9456 14.5126 18.2421 15.067 18.2421C15.5923 18.2421 15.899 18.0392 16.005 17.6242C16.0543 17.4334 16.0758 17.1521 15.9862 16.937C15.4811 15.7209 11.9499 15.153 11.5151 13.1867C11.418 12.7448 11.41 12.3685 11.4907 11.8928C11.5321 11.657 11.6082 11.428 11.7168 11.2128C3.20922 15.0306 -1.76755 19.2314 -1.10999 22.8583C0.171845 29.9142 22.2627 32.1136 48.2347 27.7747C59.6517 25.8678 69.9156 23.0131 77.7271 19.8142C77.6142 19.8196 77.5042 19.8313 77.3872 19.8313C75.6097 19.8313 74.0223 19.1922 73.8579 17.4487C73.8287 17.1314 73.8234 16.9986 73.8222 16.8177L73.8234 12.8096C73.8234 12.6367 73.8445 12.3334 73.8649 12.1768C74.0755 10.4918 75.4635 9.79692 77.3878 9.79692C78.877 9.79692 80.7031 10.2069 80.9037 12.1781C80.9306 12.4257 80.9277 12.6898 80.9271 12.7767V13.1552H78.3552V12.5904C78.3552 12.5782 78.3512 12.3672 78.3231 12.2353C78.281 12.0341 78.102 11.5679 77.3697 11.5679C76.6462 11.5679 76.4584 12.035 76.4116 12.2357C76.3847 12.346 76.3718 12.5044 76.3718 12.6799V17.036C76.3695 17.1872 76.3777 17.3056 76.3935 17.3924C76.4063 17.4609 76.5362 18.0612 77.3785 18.0612C78.2149 18.0612 78.3441 17.4609 78.3558 17.3924C78.3781 17.2745 78.381 17.1341 78.3798 17.036V15.6863H77.3679V14.2326H80.947V16.8186C80.9458 16.9946 80.9429 17.1247 80.9119 17.4487C80.8692 17.906 80.7189 18.293 80.4837 18.6238C88.7677 14.8492 93.5915 10.7164 92.9422 7.14207ZM25.5965 19.6459L24.2935 11.1507H24.2466L22.9104 19.6459H20.1643L22.0113 10.0521H26.4918L28.3276 19.6459H25.5965ZM38.805 19.6459L38.7445 11.3149H38.7004L37.0846 19.6459H34.5074L32.8995 11.3149H32.8536L32.795 19.6459H30.2411L30.4625 10.0521H34.5702L35.7662 17.1787H35.8248L37.0241 10.0521H41.1299L41.3504 19.6459H38.805ZM50.8311 17.7867C50.5563 19.645 48.6591 19.9699 47.3182 19.9699C45.0917 19.9699 43.7147 19.0567 43.7147 17.1985L43.7161 16.4406H46.4134L46.4153 17.3848C46.4153 17.8974 46.7919 18.2111 47.3735 18.2111C47.8923 18.2111 48.1962 18.0113 48.3017 17.6008C48.3505 17.4095 48.3706 17.1305 48.2844 16.9199C47.7872 15.7268 44.2836 15.1422 43.8577 13.2065C43.7602 12.7677 43.7532 12.3951 43.8334 11.9243C44.1298 10.1696 45.8849 9.80502 47.2975 9.80502C48.5611 9.80502 49.4808 10.0696 50.0324 10.5989C50.4437 10.9941 50.652 11.5364 50.652 12.211V12.9032H48.1295V12.2925C48.1295 11.7695 47.7914 11.4671 47.2478 11.4671C46.7657 11.4671 46.4739 11.6727 46.3782 12.0773C46.3472 12.2372 46.3514 12.4015 46.3904 12.5598C46.6606 13.6237 50.409 14.274 50.8194 16.2282C50.8724 16.4775 50.9451 17.0126 50.8311 17.7867ZM60.1729 16.9149C60.177 17.095 60.1582 17.4545 60.1483 17.5468C59.9945 19.1274 58.8159 19.9307 56.6554 19.9307C54.4862 19.9307 53.3071 19.1274 53.1542 17.5468C53.1369 17.3372 53.1286 17.127 53.1293 16.9167V10.0498H55.7099V17.1332C55.7071 17.2916 55.7155 17.4086 55.7319 17.4901C55.7638 17.6476 55.927 18.1589 56.6554 18.1589C57.3815 18.1589 57.5447 17.6472 57.5789 17.4919C57.5934 17.4082 57.6023 17.2853 57.6023 17.1328V10.0498H60.1729V16.9149ZM71.2913 19.5482H67.7006L65.2902 11.9491H65.2499L65.3832 19.5482H62.881V10.0521H66.622L68.8499 17.3519H68.902L68.7704 10.0521H71.2913V19.5482Z" fill="#D7CECD"/>
</g>
</g>
<defs>
<clipPath id="clip0_123_72">
<rect width="93" height="30" fill="white"/>
</clipPath>
</defs>
</svg>
