<svg width="250" height="255" viewBox="0 0 250 255" fill="none" xmlns="http://www.w3.org/2000/svg">
<g clip-path="url(#clip0_132_123)">
<path fill-rule="evenodd" clip-rule="evenodd" d="M235.577 101.13C204.864 101.13 225.731 105.788 204.968 73.1167C213.916 64.5879 226.525 56.4201 217.958 48.3507C197.54 28.9645 190.251 17.9429 181.614 26.2091C159.746 47.0061 178.125 36.0499 139.19 26.9636C139.19 14.9907 142.023 0.688851 129.932 0.688851C124.611 0.688851 120.881 0.0328024 118.324 0V57.1746C208.872 61.7997 207.352 193.698 113.798 194.125C89.0973 194.026 70.8218 184.71 58.9375 171.032H18.4828C19.6574 173.164 21.0048 175.493 22.6284 178.051C13.6117 186.613 1.03654 194.715 9.63874 202.817C28.916 221.121 37.0691 233.52 45.9823 224.959C67.9541 204.064 49.2987 215.085 88.4061 224.205C88.4061 236.341 85.5041 250.479 97.6649 250.479C109.273 250.479 118.324 250.479 129.932 250.479C142.092 250.479 139.19 236.341 139.19 224.205C178.298 215.052 159.677 204.064 181.614 224.959C190.527 233.52 198.681 221.154 217.958 202.817C226.56 194.682 213.985 186.613 204.968 178.051C225.869 145.151 204.554 150.038 235.577 150.038C243.488 150.038 245.008 144.79 245.112 133.44V130.914C245.077 125.272 244.801 118.318 244.801 109.954C244.801 105.099 240.655 101.163 235.577 101.163V101.13Z" fill="#1C768F"/>
<path fill-rule="evenodd" clip-rule="evenodd" d="M99.4956 117.63C105.507 120.057 110.309 123.993 115.94 126.913C117.495 127.7 119.084 128.422 120.742 128.979L120.776 129.012L120.846 129.045C124.922 130.554 129.31 131.341 133.732 131.144H133.801H133.87C141.263 131.079 148.173 128.093 154.046 123.993L159.366 120.286C164.271 202.719 43.1837 174.673 61.3902 121.238C61.9426 120.647 62.5647 120.122 63.1519 119.598L63.3245 119.434L63.5318 119.302C74 112.381 88.2676 112.611 99.4956 117.662V117.63ZM94.8318 138.459C95.5916 138.459 96.2137 139.049 96.2137 139.771C96.2137 140.493 95.5916 141.083 94.8318 141.083C94.0715 141.083 93.45 140.493 93.45 139.771C93.45 139.049 94.0715 138.459 94.8318 138.459ZM85.6764 136.983C86.4367 136.983 87.0588 137.573 87.0588 138.295C87.0588 139.016 86.4367 139.607 85.6764 139.607C84.9166 139.607 84.2946 139.016 84.2946 138.295C84.2946 137.573 84.9166 136.983 85.6764 136.983ZM79.5965 140.001C80.6328 140.001 81.4617 140.788 81.4617 141.772C81.4617 142.756 80.6328 143.543 79.5965 143.543C78.5598 143.543 77.7308 142.756 77.7308 141.772C77.7308 140.788 78.5598 140.001 79.5965 140.001ZM88.6823 144.429C89.7186 144.429 90.548 145.216 90.548 146.2C90.548 147.185 89.7186 147.971 88.6823 147.971C87.646 147.971 86.8166 147.185 86.8166 146.2C86.8166 145.216 87.646 144.429 88.6823 144.429ZM79.4926 126.847C81.9112 126.847 83.8456 128.684 83.8456 130.98C83.8456 133.276 81.9112 135.113 79.4926 135.113C77.0745 135.113 75.1397 133.276 75.1397 130.98C75.1397 128.684 77.0745 126.847 79.4926 126.847ZM121.606 106.116C122.366 106.116 122.988 106.706 122.988 107.428C122.988 108.15 122.366 108.74 121.606 108.74C120.846 108.74 120.224 108.15 120.224 107.428C120.224 106.706 120.846 106.116 121.606 106.116ZM120.051 120.746C121.398 120.746 122.469 121.762 122.469 123.042C122.469 124.321 121.398 125.338 120.051 125.338C118.704 125.338 117.633 124.321 117.633 123.042C117.633 121.762 118.704 120.746 120.051 120.746ZM129.241 110.544C131.659 110.544 133.594 112.381 133.594 114.677C133.594 116.974 131.659 118.81 129.241 118.81C126.822 118.81 124.888 116.974 124.888 114.677C124.888 112.381 126.822 110.544 129.241 110.544Z" fill="#1C768F"/>
<path d="M50.5411 46.2515C54.2034 46.2515 57.1744 49.0725 57.1744 52.5496C57.1744 56.0267 54.1342 62.4231 50.472 62.4231C46.8102 62.4231 43.9082 56.0267 43.9082 52.5496C43.9082 49.0725 46.8792 46.2515 50.5411 46.2515Z" fill="#1C768F"/>
<path d="M34.167 48.3179C36.9999 48.3179 39.3145 50.5155 39.3145 53.2053C39.3145 55.8951 36.9999 58.0931 34.167 58.0931C31.3342 58.0931 29.0195 55.8951 29.0195 53.2053C29.0195 50.5155 31.3342 48.3179 34.167 48.3179Z" fill="#1C768F"/>
<path d="M18.7936 44.8081V170.999C17.2044 169.424 15.4771 167.981 13.6461 166.603C9.53499 163.553 4.90567 161.125 0 159.387V26.9308C0 22.9945 3.38562 19.7798 7.53126 19.7798H114.316V37.6244H26.3249C22.1793 37.6244 18.7936 40.839 18.7936 44.7753V44.8081Z" fill="#1C768F"/>
<path fill-rule="evenodd" clip-rule="evenodd" d="M110.655 65.3096C145.685 65.3096 174.117 92.2731 174.117 125.567C174.117 158.829 145.72 185.826 110.655 185.826C75.6237 185.826 47.1914 158.862 47.1914 125.567C47.1914 92.3059 75.5889 65.3096 110.655 65.3096ZM110.655 79.0536C137.705 79.0536 159.642 99.8835 159.642 125.567C159.642 151.252 137.705 172.081 110.655 172.081C83.6041 172.081 61.6668 151.252 61.6668 125.567C61.6668 99.8835 83.6041 79.0536 110.655 79.0536Z" fill="#1C768F"/>
</g>
<defs>
<clipPath id="clip0_132_123">
<rect width="250" height="255" fill="white"/>
</clipPath>
</defs>
</svg>
