<svg width="100" height="100" viewBox="0 0 100 100" fill="none" xmlns="http://www.w3.org/2000/svg">
<path d="M50.773 14.7894L80.5077 22.7187C80.9454 22.8354 81.25 23.2319 81.25 23.6849V61.3722C81.25 63.3783 80.2474 65.2517 78.5782 66.3645L50.5547 85.0469C50.2188 85.2708 49.7812 85.2708 49.4453 85.0469L21.4218 66.3645C19.7526 65.2517 18.75 63.3783 18.75 61.3722V23.6849C18.75 23.2319 19.0546 22.8354 19.4923 22.7187L49.227 14.7894C49.7335 14.6544 50.2665 14.6544 50.773 14.7894Z" stroke="#FA991C" stroke-linecap="round"/>
<path d="M39.5833 47.9167L47.7399 56.0732C47.8375 56.1709 47.9958 56.1709 48.0934 56.0732L62.5 41.6667" stroke="#FA991C" stroke-linecap="round"/>
</svg>
