<svg width="214" height="30" viewBox="0 0 214 30" fill="none" xmlns="http://www.w3.org/2000/svg">
<g clip-path="url(#clip0_123_60)">
<mask id="mask0_123_60" style="mask-type:luminance" maskUnits="userSpaceOnUse" x="0" y="0" width="214" height="30">
<path d="M214 0H0V30H214V0Z" fill="white"/>
</mask>
<g mask="url(#mask0_123_60)">
<path d="M0 1.36188H26.1987V29.4345H0V1.36188Z" fill="#D7CECD"/>
<path d="M15.2452 2.9944C14.5381 2.84441 13.8198 2.76772 13.0997 2.76532C7.0242 2.76532 2.06603 7.9798 1.67578 14.5679C2.37124 14.7123 3.08683 14.7956 3.82131 14.7956C9.89726 14.796 14.8546 9.5829 15.2452 2.9944ZM3.82172 16.4006C3.09422 16.4006 2.38439 16.4843 1.69385 16.626C2.25581 23.0266 7.14624 28.0301 13.1002 28.0301C13.8277 28.0301 14.5371 27.9469 15.2268 27.8047C14.6661 21.4045 9.77522 16.4006 3.82172 16.4006ZM24.5619 15.3982C24.5619 9.74955 21.1967 4.96919 16.5569 3.35341V27.4429C21.1967 25.8263 24.5619 21.0464 24.5619 15.3982Z" fill="#F8F3F2"/>
<path d="M167.847 25.6724C167.847 28.377 170.538 28.9881 170.538 28.9881V29.4241H160.167V28.9881C160.167 28.9881 162.858 28.3765 162.858 25.6724V5.3436C162.858 5.3436 162.541 2.8133 160.245 2.1152V1.41755C160.245 1.41755 165.867 0.894645 167.847 0.0217896V25.6724ZM68.0379 25.6724C68.0379 28.377 70.7298 28.9881 70.7298 28.9881V29.4241H60.3598V28.9881C60.3598 28.9881 63.0511 28.3765 63.0511 25.6724V5.3436C63.0511 5.3436 62.7341 2.8133 60.4381 2.1152V1.41755C60.4381 1.41755 66.0595 0.894645 68.0379 0.0217896V25.6724ZM57.8048 23.6668C57.8048 23.6668 56.5388 26.8083 52.5009 26.8083C48.4633 26.8083 46.8802 26.1966 46.8802 23.8406V16.4245H52.7384C52.7384 16.4245 54.6391 15.9012 55.6673 18.5184H56.3003V11.713H55.6673C54.6391 14.3293 52.7384 13.8069 52.7384 13.8069H46.8802V4.29598H54.1634C54.1634 4.29598 56.38 4.29598 56.9347 6.47765H57.8836V1.7666L38.5684 1.67968V2.1152C38.5684 2.1152 41.2594 2.72683 41.2594 5.43185V25.6724C41.2594 28.377 38.5684 28.9881 38.5684 28.9881V29.4241H58.3595V23.6668H57.8048ZM131.845 13.988L131.825 10.2303L124.384 11.1892V11.9747C126.838 11.9747 126.917 14.505 126.917 14.505V25.6724C126.917 28.377 124.226 28.9881 124.226 28.9881V29.4241H134.595V28.9881C134.595 28.9881 131.905 28.3765 131.905 25.6724L131.867 18.2997C133.135 14.543 137.367 15.1166 137.367 15.1166L138.95 9.9682C134.549 8.98575 132.607 12.1857 131.845 13.988ZM76.9634 19.13H89.234C89.234 19.13 90.2629 9.8808 80.9218 9.8808C71.0255 9.8808 71.3431 19.7408 71.3431 19.7408C71.3431 19.7408 70.2337 29.861 80.6048 29.9479C80.6048 29.9479 85.4344 30.4708 88.5216 26.6331V24.1901C88.5216 24.1901 86.0668 26.8943 81.4749 26.1971C81.4749 26.1971 76.3298 25.6724 76.9634 19.13ZM97.0709 19.13C96.438 25.6724 101.584 26.1966 101.584 26.1966C106.175 26.8938 108.789 23.8406 108.789 23.8406V26.2836C105.385 30.5591 100.712 29.9479 100.712 29.9479C90.3423 29.8614 91.4495 19.7408 91.4495 19.7408C91.4495 19.7408 91.133 9.8808 101.029 9.8808C101.029 9.8808 106.018 10.3173 107.839 10.8402V16.5115H107.363C107.363 16.5115 106.407 11.9385 101.267 12.2364C96.7545 12.4985 97.0709 19.13 97.0709 19.13Z" fill="#D7CECD"/>
<path d="M77.041 16.7745H84.0873C84.0873 16.7745 84.4032 11.8004 80.5242 11.8004C77.2792 11.8004 77.041 16.7745 77.041 16.7745Z" fill="#F8F3F2"/>
<path d="M116.785 23.9275V13.1096H120.505C120.505 13.1096 122.961 13.2414 122.643 10.3611H116.785V4.64502L109.105 13.1096H111.718V23.2299C111.718 30.1226 116.626 29.8614 116.626 29.8614C120.821 30.0343 122.643 27.7671 122.643 27.7671V25.7601C116.548 28.204 116.785 23.9275 116.785 23.9275ZM149.164 9.8808C141.484 9.8808 139.267 14.3772 139.267 19.8702C139.267 25.3645 140.692 29.8609 149.164 29.8609C157.159 29.8609 159.059 25.364 159.059 19.8702C159.059 14.3772 157.396 9.8808 149.164 9.8808Z" fill="#D7CECD"/>
<path d="M149.164 12.3237C146.628 12.3237 144.572 15.6834 144.572 19.8285C144.572 23.9723 146.628 27.3307 149.164 27.3307C151.699 27.3307 153.755 23.9723 153.755 19.8285C153.755 15.6834 151.699 12.3237 149.164 12.3237Z" fill="#F8F3F2"/>
<path d="M210.121 24.9747L205.237 18.0779C207.324 15.2796 209.091 12.9354 209.091 12.9354C209.091 12.9354 211.071 11.1897 212.813 11.1028V10.2304H205.293V11.0145C205.293 11.0145 206.796 11.2771 205.687 12.9349C205.406 13.356 204.615 14.4113 203.591 15.7518L201.967 13.4583C201.967 13.4583 201.096 11.7135 203.234 11.0149V10.2308H191.596V11.1032C191.596 11.1032 194.051 11.8878 195.317 13.6344C195.937 14.4896 198.002 17.5623 199.947 20.4778C197.651 23.4341 195.554 26.1097 195.554 26.1097C195.554 26.1097 193.656 28.4639 191.835 28.5526C190.172 28.1167 190.093 25.7611 190.093 25.7611V9.9682L182.097 11.0149V11.8004C184.63 12.3242 184.789 14.5054 184.789 14.5054V24.5383C183.919 25.585 181.543 26.0228 181.543 26.0228C177.664 25.7607 178.06 22.1832 178.06 22.1832V10.0551L170.697 11.0145V11.8C173.073 12.3238 172.994 14.941 172.994 14.941V23.0552C172.994 29.9488 178.377 29.861 178.377 29.861C182.73 29.861 184.789 27.505 184.789 27.505C185.185 29.512 186.056 29.3377 186.056 29.3377H199.672L199.513 28.5517C199.513 28.5517 198.168 28.2905 198.563 27.3307C198.699 27.0016 199.984 25.1997 201.612 22.9764C202.901 24.9127 203.867 26.3719 203.867 26.3719C203.867 26.3719 204.975 27.7672 202.838 28.204V29.3381H214.001V28.291C214.001 28.291 212.416 28.4644 210.121 24.9747Z" fill="#D7CECD"/>
</g>
</g>
<defs>
<clipPath id="clip0_123_60">
<rect width="214" height="30" fill="white"/>
</clipPath>
</defs>
</svg>
