<svg width="138" height="30" viewBox="0 0 138 30" fill="none" xmlns="http://www.w3.org/2000/svg">
<g clip-path="url(#clip0_123_78)">
<mask id="mask0_123_78" style="mask-type:luminance" maskUnits="userSpaceOnUse" x="0" y="0" width="138" height="30">
<path d="M138 0H0V30H138V0Z" fill="white"/>
</mask>
<g mask="url(#mask0_123_78)">
<path d="M138 0H0V30H138V0Z" fill="#F8F3F2"/>
<path fill-rule="evenodd" clip-rule="evenodd" d="M46.8762 8.1535H55.9331C59.6064 8.1535 62.6125 10.3209 62.6125 13.741V24.8709H58.7382V13.9288C58.629 12.6295 57.3723 11.7106 56.1194 11.6407H50.7856V24.8709H46.8762V8.1535ZM39.6621 8.1535H43.5362V24.8709H39.6621V8.1535ZM66.2717 8.1535H74.073C78.0359 8.1535 81.8738 11.1754 81.8738 16.5115C81.8738 21.8475 78.0359 24.8709 74.073 24.8709H66.2717V8.1535ZM70.146 11.7956L74.2077 11.8004C77.0281 12.0012 77.9734 14.553 77.9207 16.8514C77.78 18.9085 76.7944 20.9224 74.3789 21.2116C72.9891 21.311 71.5401 21.2287 70.146 21.2287V11.7956ZM98.6006 24.8414C97.2983 25.2292 95.5646 25.4382 93.2729 25.4396C89.0036 25.4424 83.9699 23.8923 83.9699 16.482C83.9699 11.8107 86.9717 8 92.0825 8C97.5308 8 99.6861 10.3449 99.6861 16.1661V18.1307H88.1827C88.1941 20.4003 90.0848 22.2477 94.2954 22.2477C96.1405 22.2477 97.571 21.8928 98.6006 21.3028V24.8414ZM95.8689 15.1423V15.1218C95.8689 12.9461 94.942 11.172 91.9809 11.172C89.021 11.172 88.0925 12.9461 88.0925 15.1218L88.0941 15.1423H95.8689ZM122.551 8.1535H118.676V24.8709H122.551V8.1535ZM138 8.1535H124.728V11.5407H129.426V24.8709H133.301V11.5414H138.001V8.1535H138ZM108.779 11.0315C110.72 10.8595 112.655 11.1446 114.603 11.8463V8.6695C112.846 8.20215 111.057 8.0692 109.241 8.013C104.691 7.87255 102.157 9.71105 102.083 13.4553C102.032 16.0476 103.547 18.117 107.917 18.3658C110.575 18.5186 111.875 19.236 111.798 20.4565C111.721 21.67 110.206 22.1292 108.522 22.2539C105.992 22.4396 103.949 21.8791 102.132 21.163V24.8407C104.055 25.28 106.132 25.515 108.613 25.4992C113.055 25.4711 115.653 23.9334 115.746 20.3105C115.821 17.4208 113.381 15.3568 110.092 15.2431C107.103 15.1403 105.978 14.5441 105.987 13.3717C105.996 12.1115 107.231 11.17 108.779 11.0315Z" fill="#D7CECD"/>
<path fill-rule="evenodd" clip-rule="evenodd" d="M15.7553 4.11286C16.3313 4.11175 16.8833 3.89476 17.2906 3.50941C17.698 3.12407 17.9273 2.60175 17.9285 2.05678C17.9275 1.5117 17.6982 0.9892 17.2909 0.6037C16.8836 0.218199 16.3314 0.00111924 15.7553 0C15.1791 0.00111924 14.6269 0.218199 14.2196 0.6037C13.8123 0.9892 13.583 1.5117 13.582 2.05678C13.5828 2.60187 13.812 3.1244 14.2194 3.50983C14.6268 3.89526 15.1791 4.11212 15.7553 4.11286ZM17.1335 9.0957V23.604C17.1335 25.4632 14.3763 25.4674 14.3763 23.604V9.0957C14.3763 7.2365 17.1335 7.23225 17.1335 9.0957Z" fill="#D7CECD"/>
<path fill-rule="evenodd" clip-rule="evenodd" d="M9.25763 4.93391C7.27705 5.99385 5.65083 7.54015 4.51916 9.35905C3.39199 11.1731 2.7579 13.2528 2.7579 15.3872C2.7579 22.0277 8.59745 27.4436 15.7559 27.4436C22.9144 27.4436 28.7539 22.0277 28.7539 15.3872C28.7539 13.2535 28.1206 11.1731 26.9926 9.35905C25.8617 7.54015 24.2355 5.99315 22.2549 4.93391C20.5533 4.02342 21.9274 1.80324 23.6342 2.71581C26.0423 4.00405 28.0161 5.879 29.385 8.0805C30.7465 10.2716 31.5118 12.7927 31.5118 15.3872C31.5118 23.4356 24.4339 30 15.7559 30C7.07788 30 0 23.4356 0 15.3872C0 12.7927 0.765378 10.2709 2.12754 8.0805C3.49568 5.879 5.46953 4.00405 7.87757 2.71581C9.58138 1.80463 10.9622 4.02135 9.25763 4.93391Z" fill="#D7CECD"/>
</g>
</g>
<defs>
<clipPath id="clip0_123_78">
<rect width="138" height="30" fill="white"/>
</clipPath>
</defs>
</svg>
