<svg width="100" height="100" viewBox="0 0 100 100" fill="none" xmlns="http://www.w3.org/2000/svg">
<path d="M77.0833 39.5834V26.1167C77.0833 24.9966 77.0833 24.4365 76.8653 24.0087C76.6736 23.6324 76.3676 23.3264 75.9913 23.1347C75.5635 22.9167 75.0034 22.9167 73.8833 22.9167H21.95C20.8299 22.9167 20.2698 22.9167 19.842 23.1347C19.4657 23.3264 19.1597 23.6324 18.968 24.0087C18.75 24.4365 18.75 24.9966 18.75 26.1167V61.3834C18.75 62.5035 18.75 63.0635 18.968 63.4913C19.1597 63.8677 19.4657 64.1736 19.842 64.3654C20.2698 64.5834 20.8299 64.5834 21.95 64.5834H56.25" stroke="#FA991C" stroke-linecap="round"/>
<path d="M31.25 52.0833H47.9167" stroke="#FA991C" stroke-linecap="round"/>
<path d="M31.25 35.4167H60.4167" stroke="#FA991C" stroke-linecap="round"/>
<circle cx="72.9167" cy="56.25" r="9.91667" stroke="#FA991C"/>
<path d="M81.2507 77.0834C81.2507 77.0834 79.1673 72.9167 72.9173 72.9167C66.6673 72.9167 64.584 77.0834 64.584 77.0834" stroke="#FA991C" stroke-linecap="round"/>
</svg>
